<svg id="Layer_1" data-name="Layer 1" xmlns="http://www.w3.org/2000/svg" xmlns:xlink="http://www.w3.org/1999/xlink" viewBox="0 0 1182.49764 654.76976"><defs><style>.cls-1{fill:url(#linear-gradient);}.cls-2{fill:url(#linear-gradient-2);}.cls-3{fill:url(#linear-gradient-3);}.cls-4{fill:url(#linear-gradient-4);}.cls-5{fill:url(#linear-gradient-5);}.cls-6{fill:url(#linear-gradient-6);}</style><linearGradient id="linear-gradient" y1="327.38488" x2="390.80087" y2="327.38488" gradientUnits="userSpaceOnUse"><stop offset="0" stop-color="#e0556a"/><stop offset="1" stop-color="#f7d608"/></linearGradient><linearGradient id="linear-gradient-2" x1="334.72942" y1="508.91548" x2="525.11282" y2="508.91548" xlink:href="#linear-gradient"/><linearGradient id="linear-gradient-3" x1="109.58592" y1="327.38488" x2="699.81476" y2="327.38488" xlink:href="#linear-gradient"/><linearGradient id="linear-gradient-4" x1="657.38482" y1="145.02936" x2="847.24525" y2="145.02936" xlink:href="#linear-gradient"/><linearGradient id="linear-gradient-5" x1="791.69654" y1="327.38491" x2="1182.49764" y2="327.38491" xlink:href="#linear-gradient"/><linearGradient id="linear-gradient-6" x1="482.68288" y1="327.38491" x2="1072.91172" y2="327.38491" xlink:href="#linear-gradient"/></defs><polyline class="cls-1" points="274.437 0 390.801 0 109.586 654.77 0 654.77 274.437 0"/><polygon class="cls-2" points="334.729 493.169 390.801 363.061 525.113 654.77 404.795 654.77 334.729 493.169"/><polygon class="cls-3" points="265.289 654.77 390.801 363.061 525.113 654.77 699.815 654.77 390.801 0 109.586 654.77 265.289 654.77"/><polygon class="cls-4" points="657.385 0 777.703 0 847.245 162.605 790.937 290.059 657.385 0"/><polygon class="cls-5" points="791.697 654.77 1072.912 0 1182.498 0 908.06 654.77 791.697 654.77"/><polygon class="cls-6" points="482.683 0 657.385 0 790.937 290.059 917.208 0 1072.912 0 791.697 654.77 482.683 0"/></svg>